<?xml version="1.0" encoding="UTF-8"?>
<svg version="1.1" xmlns="http://www.w3.org/2000/svg" width="960" height="960">
<path d="M0 0 C1.22058105 0.17692383 2.44116211 0.35384766 3.69873047 0.53613281 C73.63689571 10.78134412 140.53138598 37.18237424 197 80 C197.62551758 80.4738916 198.25103516 80.9477832 198.89550781 81.43603516 C211.07256466 90.7198233 222.61913188 100.76324031 234 111 C232.41958084 114.81607254 230.01210421 117.24709011 227.11685181 120.15730286 C226.61568828 120.66370306 226.11452475 121.17010327 225.59817445 121.69184893 C223.91866796 123.3863499 222.23209536 125.07363305 220.54541016 126.76098633 C219.33940363 127.97461437 218.13380131 129.18864418 216.92857361 130.40304565 C213.65460134 133.6989626 210.37407925 136.98828319 207.09166002 140.27578568 C205.04262874 142.32845867 202.99490218 144.38242414 200.94761276 146.43683434 C193.80966098 153.59927445 186.6660122 160.75598127 179.51757812 167.90795898 C172.8460147 174.58316361 166.18771474 181.27140258 159.53527796 187.96566373 C153.82771022 193.70785866 148.11062467 199.44045951 142.38606679 205.16571635 C138.96502388 208.58755426 135.5481212 212.0132987 132.14088821 215.44889259 C128.93923478 218.67659885 125.7259721 221.89226617 122.50322151 225.09890366 C121.32012134 226.28017949 120.14131555 227.46577373 118.96708107 228.65586281 C117.36833702 230.27487592 115.75510021 231.87786525 114.13711548 233.47761536 C113.23635599 234.38038617 112.3355965 235.28315699 111.40754128 236.21328449 C109 238 109 238 106.80490685 237.88543224 C104.35131006 236.6817725 102.71257051 235.09174237 100.75 233.1875 C65.11245079 200.30730861 17.85204634 180.71790512 -30 175 C-31.14299561 174.85860596 -31.14299561 174.85860596 -32.30908203 174.71435547 C-41.59523776 173.71281948 -50.92074375 173.75636434 -60.25 173.75 C-61.13983582 173.74932526 -62.02967163 173.74865051 -62.94647217 173.74795532 C-76.8269439 173.76464871 -90.34434581 174.30453306 -104 177 C-104.92361328 177.18224121 -105.84722656 177.36448242 -106.79882812 177.55224609 C-113.2443386 178.86347588 -119.62871945 180.36793557 -126 182 C-126.74411133 182.18788086 -127.48822266 182.37576172 -128.25488281 182.56933594 C-146.67320797 187.31127279 -164.25519471 195.0613999 -181 204 C-181.64598145 204.33966797 -182.29196289 204.67933594 -182.95751953 205.02929688 C-203.9394919 216.12190742 -223.24700645 230.73471729 -239.7265625 247.828125 C-242 250 -242 250 -244 250 C-244.38865234 250.88558594 -244.38865234 250.88558594 -244.78515625 251.7890625 C-246.09174716 254.16697393 -247.44545731 255.54447428 -249.4375 257.375 C-264.12288689 271.74286501 -275.91819721 290.19616065 -286 308 C-286.36158203 308.62745117 -286.72316406 309.25490234 -287.09570312 309.90136719 C-304.47614078 340.26348975 -315.67826744 376.18651717 -319 411 C-319.10957031 411.94746094 -319.21914063 412.89492188 -319.33203125 413.87109375 C-326.17325765 482.55700677 -302.31020051 551.39135066 -260 605 C-257.13591077 608.46161845 -254.08465606 611.73499107 -251 615 C-249.84870242 616.32861796 -248.70270122 617.66184718 -247.5625 619 C-240.07922748 627.54985389 -231.87708234 634.93737951 -223 642 C-221.87709764 642.93402785 -220.75608654 643.87033287 -219.63671875 644.80859375 C-166.8069889 688.73102743 -98.07616916 705.73271585 -30.5546875 699.6875 C21.66460418 694.50413752 72.87120114 674.93253701 111.734375 639.078125 C113.8017788 637.18181669 115.91750093 635.36970394 118.0625 633.5625 C131.43292085 621.82001463 142.23235873 606.38338682 151 591 C151.53488037 590.0716333 151.53488037 590.0716333 152.08056641 589.12451172 C163.13340241 569.77366446 168.94359219 549.63002788 175 528 C97.12 528 19.24 528 -61 528 C-61 471.57 -61 415.14 -61 357 C75.95 357 212.9 357 354 357 C357.37971627 375.02515344 357.37971627 375.02515344 358.1328125 381.8046875 C358.21498016 382.53841583 358.29714783 383.27214417 358.38180542 384.02810669 C358.55092691 385.5514554 358.71714469 387.07512945 358.88037109 388.59912109 C359.12423216 390.86785649 359.37979519 393.13505454 359.63671875 395.40234375 C361.51581979 412.31790341 362.20985448 429.17325961 362.1875 446.1875 C362.18659363 447.48167847 362.18659363 447.48167847 362.18566895 448.80200195 C362.00490136 544.90862947 336.10280233 639.45549365 260 741 C259.23300781 741.86625 258.46601562 742.7325 257.67578125 743.625 C255.46732378 746.09910676 253.23587093 748.55065395 251 751 C250.0662107 752.03888677 249.13262851 753.07795971 248.19921875 754.1171875 C241.98822668 760.99076694 235.55776127 767.44891327 228.60693359 773.58007812 C226.93321368 775.05901386 225.27355159 776.5528672 223.61328125 778.046875 C162.91828975 832.16088334 84.13584652 863.73757305 4 874 C2.37553955 874.22212158 2.37553955 874.22212158 0.71826172 874.44873047 C-18.70129855 877.00879454 -38.12781142 877.31557082 -57.6927948 877.36836243 C-59.64526906 877.37485947 -61.5977229 877.38677175 -63.5501709 877.39880371 C-87.5626174 877.51384357 -111.38094734 875.8902941 -135.0625 871.75 C-136.28251709 871.54020508 -137.50253418 871.33041016 -138.75952148 871.11425781 C-217.71670998 857.06345686 -294.08626345 821.16292304 -353.19921875 766.5546875 C-355.31200725 764.62754151 -357.44695925 762.75839505 -359.6171875 760.8984375 C-364.59225928 756.55645019 -369.26895494 751.91710923 -373.93579102 747.24951172 C-375.42641615 745.76106763 -376.92487017 744.28082723 -378.42382812 742.80078125 C-383.9923288 737.26401532 -389.16586297 731.5833328 -394.05322266 725.42041016 C-395.93913708 723.07567031 -397.90590902 720.84382818 -399.9375 718.625 C-420.82972378 695.30153125 -437.55018299 667.62901821 -452 640 C-452.36786621 639.30277832 -452.73573242 638.60555664 -453.11474609 637.88720703 C-475.5208049 595.22684184 -490.04336495 548.70594998 -497.25 501.125 C-497.40114258 500.12976318 -497.55228516 499.13452637 -497.70800781 498.10913086 C-498.18713122 494.74364041 -498.60549111 491.37652554 -499 488 C-499.1308046 486.88099304 -499.1308046 486.88099304 -499.26425171 485.73937988 C-501.08299726 469.6604931 -501.36032601 453.66951675 -501.3125 437.5 C-501.31067719 436.22041412 -501.30885437 434.94082825 -501.30697632 433.62246704 C-501.26207768 414.90178312 -500.86201808 396.53115186 -498 378 C-497.73461426 376.22133545 -497.73461426 376.22133545 -497.46386719 374.40673828 C-485.67975266 296.97554012 -454.45166593 222.96991109 -405 162 C-403.84757812 160.55753906 -403.84757812 160.55753906 -402.671875 159.0859375 C-398.15307911 153.47694261 -393.44211695 148.09138249 -388.5546875 142.80078125 C-386.60147205 140.65941201 -384.70408124 138.49461088 -382.81640625 136.296875 C-378.45033228 131.29251025 -373.7673797 126.62120245 -369.0625 121.9375 C-367.77956055 120.64875977 -367.77956055 120.64875977 -366.47070312 119.33398438 C-361.47622561 114.3471262 -356.37469154 109.57313188 -351 105 C-349.99055491 104.12277601 -348.9814169 103.24519848 -347.97265625 102.3671875 C-283.06190277 46.77918654 -204.45886617 12.08500503 -120 0 C-118.92057129 -0.16516113 -117.84114258 -0.33032227 -116.72900391 -0.50048828 C-79.19581433 -6.07655132 -37.48385696 -5.75475993 0 0 Z " fill="#34A853" transform="translate(541,43)"/>
<path d="M0 0 C1.22058105 0.17692383 2.44116211 0.35384766 3.69873047 0.53613281 C73.63689571 10.78134412 140.53138598 37.18237424 197 80 C197.62551758 80.4738916 198.25103516 80.9477832 198.89550781 81.43603516 C211.07256466 90.7198233 222.61913188 100.76324031 234 111 C232.41958084 114.81607254 230.01210421 117.24709011 227.11685181 120.15730286 C226.61568828 120.66370306 226.11452475 121.17010327 225.59817445 121.69184893 C223.91866796 123.3863499 222.23209536 125.07363305 220.54541016 126.76098633 C219.33940363 127.97461437 218.13380131 129.18864418 216.92857361 130.40304565 C213.65460134 133.6989626 210.37407925 136.98828319 207.09166002 140.27578568 C205.04262874 142.32845867 202.99490218 144.38242414 200.94761276 146.43683434 C193.80966098 153.59927445 186.6660122 160.75598127 179.51757812 167.90795898 C172.8460147 174.58316361 166.18771474 181.27140258 159.53527796 187.96566373 C153.82771022 193.70785866 148.11062467 199.44045951 142.38606679 205.16571635 C138.96502388 208.58755426 135.5481212 212.0132987 132.14088821 215.44889259 C128.93923478 218.67659885 125.7259721 221.89226617 122.50322151 225.09890366 C121.32012134 226.28017949 120.14131555 227.46577373 118.96708107 228.65586281 C117.36833702 230.27487592 115.75510021 231.87786525 114.13711548 233.47761536 C113.23635599 234.38038617 112.3355965 235.28315699 111.40754128 236.21328449 C109 238 109 238 106.80490685 237.88543224 C104.35131006 236.6817725 102.71257051 235.09174237 100.75 233.1875 C65.11245079 200.30730861 17.85204634 180.71790512 -30 175 C-31.14299561 174.85860596 -31.14299561 174.85860596 -32.30908203 174.71435547 C-41.59523776 173.71281948 -50.92074375 173.75636434 -60.25 173.75 C-61.13983582 173.74932526 -62.02967163 173.74865051 -62.94647217 173.74795532 C-76.8269439 173.76464871 -90.34434581 174.30453306 -104 177 C-104.92361328 177.18224121 -105.84722656 177.36448242 -106.79882812 177.55224609 C-113.2443386 178.86347588 -119.62871945 180.36793557 -126 182 C-126.74411133 182.18788086 -127.48822266 182.37576172 -128.25488281 182.56933594 C-146.67320797 187.31127279 -164.25519471 195.0613999 -181 204 C-181.64598145 204.33966797 -182.29196289 204.67933594 -182.95751953 205.02929688 C-203.9394919 216.12190742 -223.24700645 230.73471729 -239.7265625 247.828125 C-242 250 -242 250 -244 250 C-244.38865234 250.88558594 -244.38865234 250.88558594 -244.78515625 251.7890625 C-246.09174716 254.16697393 -247.44545731 255.54447428 -249.4375 257.375 C-264.12288689 271.74286501 -275.91819721 290.19616065 -286 308 C-286.36158203 308.62745117 -286.72316406 309.25490234 -287.09570312 309.90136719 C-304.47614078 340.26348975 -315.67826744 376.18651717 -319 411 C-319.10957031 411.94746094 -319.21914063 412.89492188 -319.33203125 413.87109375 C-322.77754533 448.46405512 -317.84746753 483.12756295 -307.47143555 516.14428711 C-307 518 -307 518 -307 521 C-308.29077148 522.32763672 -308.29077148 522.32763672 -310.12109375 523.6796875 C-310.80034912 524.18943115 -311.47960449 524.6991748 -312.17944336 525.22436523 C-312.92460205 525.76907471 -313.66976074 526.31378418 -314.4375 526.875 C-316.01058173 528.0505604 -317.58349385 529.2263478 -319.15625 530.40234375 C-319.96449219 531.00159668 -320.77273438 531.60084961 -321.60546875 532.21826172 C-325.24209296 534.92422455 -328.84006449 537.67977633 -332.4375 540.4375 C-333.13552734 540.97109131 -333.83355469 541.50468262 -334.55273438 542.05444336 C-341.98079626 547.73677478 -349.35837392 553.48362141 -356.73388672 559.23388672 C-360.48696234 562.15887584 -364.24365366 565.07921327 -368 568 C-369.50001753 569.16664413 -371.00001753 570.3333108 -372.5 571.5 C-381.5 578.5 -381.5 578.5 -383.75097656 580.25073242 C-385.24775643 581.41491259 -386.74450134 582.5791377 -388.24121094 583.7434082 C-392.04019058 586.69849173 -395.83981465 589.65274014 -399.640625 592.60546875 C-406.43929417 597.88821845 -413.2346231 603.17465098 -420 608.5 C-425.44634841 612.78625537 -430.90664451 617.05435433 -436.375 621.3125 C-437.48101562 622.17488281 -437.48101562 622.17488281 -438.609375 623.0546875 C-440.73536366 624.70866063 -442.86695479 626.35514135 -445 628 C-446.1122998 628.8669751 -446.1122998 628.8669751 -447.24707031 629.75146484 C-447.96217773 630.30141113 -448.67728516 630.85135742 -449.4140625 631.41796875 C-450.05553223 631.91449951 -450.69700195 632.41103027 -451.35791016 632.92260742 C-453 634 -453 634 -455 634 C-482.86043573 578.39314377 -500.95463291 515.64080905 -501.203125 453.09765625 C-501.21013931 451.9093924 -501.21715363 450.72112854 -501.22438049 449.49685669 C-501.24178023 445.68536543 -501.24823234 441.87402952 -501.25 438.0625 C-501.25067474 436.7604361 -501.25134949 435.45837219 -501.25204468 434.11685181 C-501.23646684 415.21889517 -500.88922314 396.70730068 -498 378 C-497.73461426 376.22133545 -497.73461426 376.22133545 -497.46386719 374.40673828 C-485.67975266 296.97554012 -454.45166593 222.96991109 -405 162 C-403.84757812 160.55753906 -403.84757812 160.55753906 -402.671875 159.0859375 C-398.15307911 153.47694261 -393.44211695 148.09138249 -388.5546875 142.80078125 C-386.60147205 140.65941201 -384.70408124 138.49461088 -382.81640625 136.296875 C-378.45033228 131.29251025 -373.7673797 126.62120245 -369.0625 121.9375 C-367.77956055 120.64875977 -367.77956055 120.64875977 -366.47070312 119.33398438 C-361.47622561 114.3471262 -356.37469154 109.57313188 -351 105 C-349.99055491 104.12277601 -348.9814169 103.24519848 -347.97265625 102.3671875 C-283.06190277 46.77918654 -204.45886617 12.08500503 -120 0 C-118.92057129 -0.16516113 -117.84114258 -0.33032227 -116.72900391 -0.50048828 C-79.19581433 -6.07655132 -37.48385696 -5.75475993 0 0 Z " fill="#EA4334" transform="translate(541,43)"/>
<path d="M0 0 C136.95 0 273.9 0 415 0 C418.37971627 18.02515344 418.37971627 18.02515344 419.1328125 24.8046875 C419.21498016 25.53841583 419.29714783 26.27214417 419.38180542 27.02810669 C419.55092691 28.5514554 419.71714469 30.07512945 419.88037109 31.59912109 C420.12423216 33.86785649 420.37979519 36.13505454 420.63671875 38.40234375 C422.51581979 55.31790341 423.20985448 72.17325961 423.1875 89.1875 C423.18689575 90.05028564 423.1862915 90.91307129 423.18566895 91.80200195 C423.00490136 187.90862947 397.10280233 282.45549365 321 384 C320.23300781 384.86625 319.46601562 385.7325 318.67578125 386.625 C316.46730715 389.09912538 314.23659732 391.55127948 312 394 C311.01947255 395.0858845 310.03900754 396.17182538 309.05859375 397.2578125 C303.65919818 403.20698939 298.26374652 408.93373443 292 414 C285.32678988 409.94046384 279.37559963 405.11792293 273.36157227 400.16552734 C268.64252604 396.29491642 263.84129469 392.57065154 258.9375 388.9375 C252.99994485 384.53544446 247.19168581 380.00249568 241.43774414 375.36352539 C235.36811303 370.47430081 229.19323335 365.73104847 223 361 C213.41097905 353.64638139 203.86496969 346.23870219 194.33056641 338.81445312 C189.81291826 335.29725628 185.2930307 331.78293759 180.77319336 328.26855469 C176.89662819 325.25406035 173.02144946 322.23780854 169.1484375 319.21875 C167.94960938 318.28482422 167.94960938 318.28482422 166.7265625 317.33203125 C165.21308645 316.15292782 163.70003153 314.97328354 162.1875 313.79296875 C157.49825 310.14093204 152.76693794 306.55001752 148 303 C151.08964749 299.5907338 154.36192921 296.96656853 158.125 294.3125 C163.24349812 290.6613506 167.84518621 286.65437966 172.44140625 282.37109375 C174.62429259 280.34817465 176.848806 278.41560881 179.125 276.5 C192.47654685 264.79712594 203.25366106 249.34601051 212 234 C212.35658691 233.38108887 212.71317383 232.76217773 213.08056641 232.12451172 C224.13340241 212.77366446 229.94359219 192.63002788 236 171 C158.12 171 80.24 171 0 171 C0 114.57 0 58.14 0 0 Z " fill="#4185F3" transform="translate(480,400)"/>
<path d="M0 0 C5.08982328 1.55931002 8.56631074 4.69640934 12.5625 8.0625 C14.00248184 9.25432725 15.44389697 10.44442485 16.88671875 11.6328125 C17.94318604 12.50341309 17.94318604 12.50341309 19.02099609 13.39160156 C22.51844295 16.23408613 26.14459103 18.89660255 29.765625 21.578125 C36.14835837 26.3267492 42.38225156 31.27509885 48.65332031 36.16943359 C52.43222339 39.11722961 56.21627954 42.05839183 60 45 C64.55954742 48.54565133 69.11854845 52.091999 73.67578125 55.640625 C80.27201386 60.77594703 86.86968837 65.9087193 93.5 71 C98.57682898 74.89839314 103.63577073 78.81914001 108.6875 82.75 C109.44498535 83.33934326 110.2024707 83.92868652 110.98291016 84.53588867 C114.90080738 87.58511372 118.81667527 90.63691578 122.73046875 93.69140625 C131.09202733 100.21277626 139.4806142 106.6856317 148 113 C146.97163245 117.77946059 145.88378049 122.52373537 144.6328125 127.25 C131.45753448 177.23254202 132.00518776 226.74861765 147.52856445 276.14428711 C148 278 148 278 148 281 C146.70922852 282.32763672 146.70922852 282.32763672 144.87890625 283.6796875 C144.19965088 284.18943115 143.52039551 284.6991748 142.82055664 285.22436523 C142.07539795 285.76907471 141.33023926 286.31378418 140.5625 286.875 C138.98941827 288.0505604 137.41650615 289.2263478 135.84375 290.40234375 C135.03550781 291.00159668 134.22726563 291.60084961 133.39453125 292.21826172 C129.75790704 294.92422455 126.15993551 297.67977633 122.5625 300.4375 C121.86447266 300.97109131 121.16644531 301.50468262 120.44726562 302.05444336 C113.01920374 307.73677478 105.64162608 313.48362141 98.26611328 319.23388672 C94.51303766 322.15887584 90.75634634 325.07921327 87 328 C85.49998247 329.16664413 83.99998247 330.3333108 82.5 331.5 C73.5 338.5 73.5 338.5 71.24902344 340.25073242 C69.75224357 341.41491259 68.25549866 342.5791377 66.75878906 343.7434082 C62.95980942 346.69849173 59.16018535 349.65274014 55.359375 352.60546875 C48.56070583 357.88821845 41.7653769 363.17465098 35 368.5 C29.55365159 372.78625537 24.09335549 377.05435433 18.625 381.3125 C17.88765625 381.88742187 17.1503125 382.46234375 16.390625 383.0546875 C14.26463634 384.70866063 12.13304521 386.35514135 10 388 C9.2584668 388.5779834 8.51693359 389.1559668 7.75292969 389.75146484 C7.03782227 390.30141113 6.32271484 390.85135742 5.5859375 391.41796875 C4.94446777 391.91449951 4.30299805 392.41103027 3.64208984 392.92260742 C2 394 2 394 0 394 C-27.86043573 338.39314377 -45.95463291 275.64080905 -46.203125 213.09765625 C-46.21013931 211.9093924 -46.21715363 210.72112854 -46.22438049 209.49685669 C-46.24178023 205.68536543 -46.24823234 201.87402952 -46.25 198.0625 C-46.25067474 196.7604361 -46.25134949 195.45837219 -46.25204468 194.11685181 C-46.23646684 175.21889517 -45.88922314 156.70730068 -43 138 C-42.82307617 136.81422363 -42.64615234 135.62844727 -42.46386719 134.40673828 C-35.32202644 87.47904723 -21.38896815 42.42550444 0 0 Z " fill="#FABB05" transform="translate(86,283)"/>
</svg>
