<?xml version="1.0" encoding="UTF-8"?>
<svg version="1.1" xmlns="http://www.w3.org/2000/svg" width="2560" height="1701">
<path d="M0 0 C1.34629856 -0.00701983 2.69259677 -0.01410667 4.03889465 -0.02125549 C8.32411163 -0.04068359 12.60927469 -0.04569015 16.89453125 -0.046875 C17.62424133 -0.04731686 18.35395142 -0.04775871 19.10577393 -0.04821396 C41.11170041 -0.05520589 62.85877028 0.24540022 84.70703125 3.203125 C86.07775629 3.38216691 87.44852595 3.56086748 88.81933594 3.73925781 C139.96328321 10.48112575 189.61886116 24.13836386 236.70703125 45.203125 C237.72297363 45.65010742 238.73891602 46.09708984 239.78564453 46.55761719 C253.63422839 52.65353954 266.99117355 59.37589674 280.17871094 66.79052734 C282.54443538 68.11228107 284.92230706 69.40723853 287.30859375 70.69140625 C327.81641106 92.58752371 365.0290959 120.9672125 400.00244141 150.75292969 C401.72822454 152.22115539 403.45777397 153.68486033 405.1875 155.1484375 C412.16721045 161.0723201 418.97633405 167.14378773 425.671875 173.38671875 C428.42037133 175.94775843 431.21329754 178.45536278 434.01953125 180.953125 C437.65784037 184.20938228 441.13802117 187.57166293 444.52734375 191.0859375 C446.30946089 192.81695451 448.11596965 194.4065265 450.0078125 196.01171875 C456.21082148 201.40314588 461.94428187 207.29169964 467.7434082 213.10913086 C469.76467393 215.1357548 471.79122699 217.15698047 473.81835938 219.17773438 C485.1917661 230.5458882 485.1917661 230.5458882 490.36108398 236.63891602 C492.35327155 238.95416102 494.51979373 241.07344636 496.70703125 243.203125 C500.18793187 246.64749443 503.48206744 250.15637395 506.6640625 253.875 C509.44649297 257.0458003 512.32809642 260.12005636 515.20703125 263.203125 C519.79798764 268.1291877 524.32953782 273.08525213 528.70703125 278.203125 C529.58325446 279.22532803 530.4595647 280.24745646 531.3359375 281.26953125 C532.85161134 283.03773331 534.36683927 284.80630934 535.88085938 286.57592773 C539.1153926 290.35471416 542.36470516 294.12011768 545.62695312 297.875 C554.48920658 308.07554857 563.28055785 318.28632841 571.5715332 328.9597168 C575.22927411 333.64907792 579.03988387 338.19034095 582.91381836 342.7019043 C585.99981698 346.31188738 588.87646958 350.01077363 591.5859375 353.91015625 C591.95589844 354.33683594 592.32585937 354.76351563 592.70703125 355.203125 C593.36703125 355.203125 594.02703125 355.203125 594.70703125 355.203125 C596.0886362 353.6918273 596.0886362 353.6918273 597.47265625 351.6796875 C598.02598633 350.91479004 598.57931641 350.14989258 599.14941406 349.36181641 C599.74592773 348.52569824 600.34244141 347.68958008 600.95703125 346.828125 C605.85021609 340.07359605 610.81467836 333.39524509 615.95703125 326.828125 C616.54315186 326.07950195 617.12927246 325.33087891 617.7331543 324.55957031 C618.8692116 323.10917559 620.0055139 321.65897271 621.14208984 320.20898438 C623.37354768 317.34881938 625.57025949 314.46311477 627.76953125 311.578125 C632.61774366 305.26027324 637.63730472 299.08846889 642.67578125 292.921875 C645.08552924 289.97201109 647.46673706 287.00132422 649.83203125 284.015625 C653.32395958 279.63417388 656.93460468 275.36107448 660.56640625 271.09570312 C663.53475442 267.60522169 666.44927556 264.07756397 669.33203125 260.515625 C672.91337077 256.11223424 676.65963228 251.8991592 680.484375 247.70703125 C682.66909175 245.24586529 684.72202549 242.71651934 686.76953125 240.140625 C692.12831432 233.51042592 698.02808536 227.40589104 703.8984375 221.23046875 C706.8707224 218.10117393 709.7795124 214.93067699 712.64453125 211.703125 C716.07650672 207.84623828 719.66442935 204.19461267 723.37109375 200.6015625 C725.28635973 198.63505194 727.07235454 196.63861976 728.859375 194.55859375 C733.2288227 189.5264699 737.92332126 184.84058423 742.64453125 180.140625 C743.49982422 179.28146484 744.35511719 178.42230469 745.23632812 177.53710938 C749.69350162 173.08673554 754.22076105 168.79780241 758.99829102 164.69360352 C761.17430743 162.79553519 763.19696522 160.77503921 765.20703125 158.703125 C768.53823932 155.33212435 771.95814753 152.1579847 775.5546875 149.07421875 C778.08755287 146.87232671 780.55035647 144.60116674 783.01953125 142.328125 C787.90591123 137.87623845 792.94238668 133.6700937 798.08740234 129.52246094 C799.89687933 128.04847637 801.6873673 126.55322246 803.4765625 125.0546875 C872.89642629 67.04176574 955.16816034 21.94963689 1044.70703125 5.453125 C1045.69936768 5.26661377 1046.6917041 5.08010254 1047.71411133 4.88793945 C1070.20585132 0.96231981 1092.72098976 -0.32254861 1115.51953125 -0.171875 C1116.7848468 -0.16722229 1118.05016235 -0.16256958 1119.3538208 -0.15777588 C1138.30664618 -0.0762821 1156.93507671 0.40034208 1175.70703125 3.203125 C1176.75005402 3.35584869 1176.75005402 3.35584869 1177.81414795 3.51165771 C1259.03235397 15.42616159 1337.09467647 45.34880019 1404.70703125 92.203125 C1405.46258301 92.72197266 1406.21813477 93.24082031 1406.99658203 93.77539062 C1433.28593148 111.83987723 1458.14084187 131.70868854 1481.70703125 153.203125 C1482.66222656 154.06550781 1483.61742188 154.92789063 1484.6015625 155.81640625 C1491.51647872 162.07966666 1498.15665232 168.55961272 1504.70703125 175.203125 C1507.9012965 178.40873755 1511.11204767 181.59751042 1514.32421875 184.78515625 C1516.07689165 186.52857673 1517.82949381 188.27206835 1519.58203125 190.015625 C1520.45472656 190.87994141 1521.32742187 191.74425781 1522.2265625 192.63476562 C1526.71889142 197.11020609 1531.07178982 201.63605155 1535.20068359 206.44946289 C1537.27002895 208.85855652 1539.4271893 211.18302673 1541.58203125 213.515625 C1545.67263685 218.00110052 1549.55520968 222.60893044 1553.3671875 227.33203125 C1555.44422939 229.88065527 1557.55651595 232.39018064 1559.69238281 234.88916016 C1565.91081464 242.16730366 1571.85639176 249.62741118 1577.70703125 257.203125 C1578.31208496 257.98220215 1578.91713867 258.7612793 1579.54052734 259.56396484 C1587.93482895 270.38472791 1596.02010641 281.3333645 1603.64453125 292.7109375 C1605.87668773 296.02865807 1608.20094645 299.26328741 1610.5703125 302.484375 C1614.88512188 308.38459262 1618.91135924 314.45059539 1622.89453125 320.578125 C1623.26042358 321.13971313 1623.62631592 321.70130127 1624.0032959 322.27990723 C1659.0311431 376.06252388 1689.78216382 432.58039585 1715.83001709 491.23095703 C1716.67360613 493.12796093 1717.52101333 495.02320903 1718.36962891 496.91796875 C1757.49738044 584.51847721 1785.82856797 677.27959486 1836.39453125 1001.953125 C1836.48593887 1003.36638565 1836.48593887 1003.36638565 1836.57919312 1004.80819702 C1838.04343932 1027.7255519 1838.86927789 1050.61770859 1838.91015625 1073.58203125 C1838.91298363 1074.69070997 1838.915811 1075.79938869 1838.91872406 1076.94166374 C1838.93356168 1082.82610163 1838.94288419 1088.71051604 1838.94726562 1094.5949707 C1838.95161475 1099.33430834 1838.96539053 1104.07346029 1838.98828125 1108.81274414 C1839.37171686 1189.92269645 1831.98778832 1270.51245475 1811.70703125 1349.203125 C1811.42311523 1350.32541504 1811.13919922 1351.44770508 1810.84667969 1352.60400391 C1789.6559321 1435.77828546 1752.07196046 1516.67235578 1693.70703125 1580.203125 C1693.17142578 1580.78916504 1692.63582031 1581.37520508 1692.08398438 1581.97900391 C1679.55718616 1595.66505002 1679.55718616 1595.66505002 1673.66015625 1600.55859375 C1671.27920258 1602.56335674 1669.03896406 1604.69798372 1666.76953125 1606.828125 C1660.1275257 1612.88217985 1653.0061633 1618.25790419 1645.80761719 1623.62890625 C1643.88988152 1625.06609355 1641.9880017 1626.52149702 1640.08984375 1627.984375 C1571.3117112 1680.45171578 1482.83971534 1701.49686445 1397.64453125 1701.390625 C1396.73728302 1701.39002075 1395.83003479 1701.3894165 1394.89529419 1701.38879395 C1300.40922485 1701.2197467 1208.708671 1677.96011328 1131.70703125 1621.203125 C1131.04155273 1620.71634277 1130.37607422 1620.22956055 1129.69042969 1619.72802734 C1110.09386106 1605.36888061 1091.47601078 1589.76389724 1073.70703125 1573.203125 C1072.75860352 1572.32237305 1072.75860352 1572.32237305 1071.79101562 1571.42382812 C1050.76075593 1551.88564821 1050.76075593 1551.88564821 1042.41796875 1542.1328125 C1040.58903262 1540.07003979 1038.67122667 1538.1372178 1036.70703125 1536.203125 C1033.49268394 1533.0319647 1030.48952162 1529.74729747 1027.546875 1526.32421875 C1025.51194306 1523.97821442 1023.42412158 1521.6857605 1021.33203125 1519.390625 C1017.47680739 1515.12002349 1013.8312061 1510.71538831 1010.21484375 1506.2421875 C1007.31871354 1502.73254683 1004.33025549 1499.31291134 1001.33203125 1495.890625 C996.67606373 1490.56066102 992.202598 1485.13016812 987.8671875 1479.53710938 C984.42412362 1475.09684687 980.89327248 1470.73648364 977.33203125 1466.390625 C970.59539787 1458.14048801 964.12252152 1449.70428715 957.70703125 1441.203125 C956.80549316 1440.01130615 956.80549316 1440.01130615 955.88574219 1438.79541016 C947.5485521 1427.76677178 939.35383323 1416.64581389 931.29541016 1405.41210938 C929.70293001 1403.19742134 928.10281442 1400.98846816 926.5 1398.78125 C906.04364919 1370.59956017 886.56214996 1341.75049784 867.45703125 1312.640625 C867.00237488 1311.94791504 866.54771851 1311.25520508 866.07928467 1310.54150391 C858.17861726 1298.49753019 850.37632295 1286.39602172 842.70703125 1274.203125 C842.12324707 1273.27725586 841.53946289 1272.35138672 840.93798828 1271.39746094 C826.94672879 1249.19304322 813.36857199 1226.74748157 800.00012207 1204.16430664 C794.46073627 1194.80772845 788.86736475 1185.48700817 783.20703125 1176.203125 C775.79108707 1164.03605527 768.50353903 1151.79557619 761.24111938 1139.53637695 C760.85217499 1138.87984131 760.46323059 1138.22330566 760.0625 1137.546875 C759.68008148 1136.90129639 759.29766296 1136.25571777 758.90365601 1135.59057617 C755.85702401 1130.45001194 752.78867161 1125.32278311 749.70703125 1120.203125 C746.23449372 1114.43405307 742.78335907 1108.65275153 739.3515625 1102.859375 C738.9626181 1102.20283936 738.57367371 1101.54630371 738.17294312 1100.86987305 C737.77684845 1100.20125244 737.38075378 1099.53263184 736.97265625 1098.84375 C729.77047966 1086.68647592 722.52233249 1074.56126359 715.16641235 1062.49633789 C709.03195037 1052.43103646 703.00274691 1042.30582971 696.99902344 1032.16210938 C691.45997613 1022.80627724 685.86659498 1013.48651921 680.20703125 1004.203125 C674.18575588 994.32337554 668.23267718 984.40540536 662.33203125 974.453125 C661.937276 973.7873645 661.54252075 973.121604 661.13580322 972.43566895 C657.9209659 967.01246363 654.70980657 961.58708281 651.4987793 956.16162109 C648.69490129 951.42444455 645.88959318 946.68811923 643.08203125 941.953125 C642.68711487 941.28704224 642.29219849 940.62095947 641.88531494 939.93469238 C636.04087569 930.08227043 630.12745417 920.274105 624.16448975 910.49304199 C618.03064813 900.42885071 612.00209971 890.30473622 605.99902344 880.16210938 C600.45997275 870.80627153 594.86624698 861.4867355 589.20703125 852.203125 C583.25643148 842.43351531 577.35107485 832.63816752 571.4987793 822.80932617 C570.64317219 821.37285709 569.78657679 819.93697618 568.92895508 818.50170898 C567.73743284 816.5067924 566.54978959 814.50962043 565.36328125 812.51171875 C565.00685547 811.91620712 564.65042969 811.3206955 564.28320312 810.70713806 C562.80886948 808.21539857 561.6266215 805.96189574 560.70703125 803.203125 C560.04703125 803.203125 559.38703125 803.203125 558.70703125 803.203125 C558.31112793 804.25536255 558.31112793 804.25536255 557.90722656 805.32885742 C556.61994846 808.41167377 555.11593559 811.26522255 553.50390625 814.19140625 C553.18974258 814.76262207 552.87557892 815.33383789 552.55189514 815.92236328 C551.52364009 817.78866483 550.49061247 819.65226855 549.45703125 821.515625 C549.10144135 822.15905853 548.74585144 822.80249207 548.37948608 823.46542358 C542.99222786 833.21086242 537.44679569 842.85248848 531.79248047 852.44580078 C527.16133422 860.33761166 522.78628827 868.35092879 518.46020508 876.41308594 C513.54638709 885.55444701 508.40611954 894.55505269 503.22949219 903.54931641 C500.57712719 908.17266591 497.95389871 912.81243144 495.33203125 917.453125 C494.79521729 918.4030835 494.25840332 919.35304199 493.70532227 920.33178711 C489.66650891 927.48689099 485.65349981 934.65626863 481.64453125 941.828125 C476.89218951 950.32984105 472.09198329 958.80194044 467.24584961 967.25048828 C463.35523697 974.04345806 459.52434715 980.8687385 455.70703125 987.703125 C450.90608913 996.29746079 446.06229971 1004.86510167 441.16699219 1013.40600586 C437.5728951 1019.67906938 434.00878321 1025.96849991 430.45703125 1032.265625 C425.25607509 1041.48557328 420.0082242 1050.67818212 414.74676514 1059.86367798 C409.97418978 1068.19866538 405.25701516 1076.56292209 400.58203125 1084.953125 C395.52384497 1094.02418187 390.34837984 1103.01880507 385.0949707 1111.97802734 C380.60104954 1119.64856759 376.17264572 1127.35523359 371.76953125 1135.078125 C370.41686731 1137.44933325 369.06395774 1139.82040129 367.7109375 1142.19140625 C367.37690918 1142.7767514 367.04288086 1143.36209656 366.69873047 1143.96517944 C357.53626684 1160.01643157 348.27257741 1176.00333744 338.82592773 1191.88916016 C335.36915678 1197.70375037 331.92560706 1203.52506374 328.515625 1209.3671875 C327.99202141 1210.26417107 327.99202141 1210.26417107 327.45783997 1211.17927551 C327.10783432 1211.7789061 326.75782867 1212.37853668 326.3972168 1212.99633789 C317.99007954 1227.3990235 309.4050454 1241.6848409 300.71191406 1255.91650391 C298.7852085 1259.07496838 296.86574468 1262.23769424 294.94921875 1265.40234375 C288.17927136 1276.57556128 281.32283966 1287.68564644 274.29833984 1298.70068359 C272.64100892 1301.30694962 270.9959582 1303.92071236 269.3515625 1306.53515625 C252.26679516 1333.58450119 234.3206814 1360.18175339 215.70703125 1386.203125 C215.18077148 1386.93966309 214.65451172 1387.67620117 214.11230469 1388.43505859 C206.91223036 1398.49404933 199.59511948 1408.46645652 192.2421875 1418.4140625 C189.8871437 1421.60048942 187.54125397 1424.79332951 185.203125 1427.9921875 C177.74488257 1438.18428597 170.11829023 1448.22398969 162.31494141 1458.15429688 C160.82973022 1460.04677976 159.35104166 1461.94411213 157.875 1463.84375 C148.38802812 1476.02923067 138.54668667 1487.92958108 128.52807617 1499.6809082 C125.79557439 1502.89133423 123.14448257 1506.15460126 120.51953125 1509.453125 C115.81806954 1515.24280931 110.70260786 1520.62241548 105.55395508 1526.01464844 C104.90064209 1526.69946289 104.2473291 1527.38427734 103.57421875 1528.08984375 C102.99784668 1528.69014404 102.42147461 1529.29044434 101.82763672 1529.90893555 C100.00507159 1531.88068831 98.24916477 1533.88766431 96.49633789 1535.92089844 C92.58125565 1540.41020701 88.4273281 1544.62704941 84.2109375 1548.83203125 C83.41856186 1549.62536362 82.62618622 1550.41869598 81.80979919 1551.23606873 C80.14452842 1552.90201581 78.47801096 1554.56671756 76.81030273 1556.23022461 C74.27668503 1558.75848634 71.74844958 1561.29204161 69.22070312 1563.82617188 C67.59276842 1565.4534457 65.9645235 1567.08040925 64.3359375 1568.70703125 C63.58985733 1569.45513565 62.84377716 1570.20324005 62.0750885 1570.97401428 C57.44440466 1575.58435632 52.66069709 1579.94379641 47.70703125 1584.203125 C46.09934752 1585.65758017 44.4946341 1587.11533395 42.89453125 1588.578125 C37.64522148 1593.30888593 32.2107918 1597.77309552 26.70703125 1602.203125 C25.57389428 1603.12850908 24.44109676 1604.05430893 23.30859375 1604.98046875 C-50.75069113 1665.25894954 -140.38031986 1699.8938994 -247.85546875 1701.390625 C-248.69201996 1701.39002075 -249.52857117 1701.3894165 -250.39047241 1701.38879395 C-319.08875515 1701.2558792 -388.55172576 1690.08937851 -451.29296875 1661.203125 C-452.56841553 1660.62594727 -452.56841553 1660.62594727 -453.86962891 1660.03710938 C-486.31026268 1645.31928703 -516.57723898 1625.79528252 -543.29296875 1602.203125 C-544.13730469 1601.45804688 -544.98164062 1600.71296875 -545.8515625 1599.9453125 C-548.34880257 1597.71577657 -550.8214866 1595.46116097 -553.29296875 1593.203125 C-554.29781354 1592.30297942 -555.30304103 1591.40326093 -556.30859375 1590.50390625 C-564.80562522 1582.85086476 -572.63785921 1574.69329776 -580.29296875 1566.203125 C-580.83421387 1565.60661133 -581.37545898 1565.01009766 -581.93310547 1564.39550781 C-591.44009853 1553.86815338 -599.94307636 1542.66038169 -608.29296875 1531.203125 C-608.82809082 1530.47335449 -609.36321289 1529.74358398 -609.91455078 1528.99169922 C-637.1456503 1491.73582172 -658.00035905 1450.26509629 -674.29296875 1407.203125 C-674.71884277 1406.09565918 -675.1447168 1404.98819336 -675.58349609 1403.84716797 C-706.17702049 1323.89847633 -720.91500031 1233.82394105 -721.4609375 1136.44140625 C-721.46416752 1134.27752157 -721.46753274 1132.11363708 -721.47102356 1129.94975281 C-721.4769697 1125.42914324 -721.47886856 1120.90855264 -721.47827148 1116.38793945 C-721.47819089 1111.84395306 -721.4850334 1107.30006892 -721.4987793 1102.75610352 C-721.5838318 1074.17248951 -721.14572076 1045.73036468 -719.29296875 1017.203125 C-719.21490997 1015.97763947 -719.1368512 1014.75215393 -719.056427 1013.48953247 C-718.59277204 1006.34710635 -718.06024752 999.21199524 -717.48046875 992.078125 C-717.35350113 990.49700424 -717.35350113 990.49700424 -717.22396851 988.88394165 C-709.06725504 887.92789791 -691.59131319 787.49540521 -597.26690674 505.38671875 C-596.29162743 503.20011773 -595.31926132 501.0122377 -594.34716797 498.82421875 C-586.54416851 481.28754024 -578.37770764 463.99162531 -569.65771484 446.88867188 C-568.12189024 443.86647677 -566.61326023 440.83162023 -565.11035156 437.79296875 C-537.09302002 381.23570259 -503.58169696 326.42194634 -465.29296875 276.203125 C-464.29668637 274.88555928 -463.30060587 273.56784089 -462.3046875 272.25 C-447.28245904 252.4271353 -431.39234308 233.3278071 -414.69921875 214.890625 C-412.75682987 212.72120365 -410.83752707 210.53609766 -408.92578125 208.33984375 C-399.49089768 197.54449944 -389.47593076 187.29043973 -379.35546875 177.140625 C-378.48003418 176.26059814 -377.60459961 175.38057129 -376.70263672 174.47387695 C-372.30867003 170.09037807 -367.85299894 165.85379258 -363.14477539 161.80981445 C-360.1766703 159.23458709 -357.33850513 156.52403547 -354.48046875 153.828125 C-349.51112322 149.1779909 -344.43400703 144.75345562 -339.1171875 140.5 C-336.4806909 138.35579529 -333.9158923 136.15142624 -331.35668945 133.91674805 C-323.98545731 127.49299618 -316.32639028 121.57145476 -308.4453125 115.7890625 C-306.21819187 114.14802624 -304.004731 112.48979201 -301.79296875 110.828125 C-290.2420521 102.18102261 -278.41254681 94.03232729 -266.29296875 86.203125 C-265.46635742 85.66864746 -264.63974609 85.13416992 -263.78808594 84.58349609 C-193.78562278 39.62537525 -113.43304197 9.08687968 -27.29296875 1.203125 C-25.86232086 1.07383102 -25.86232086 1.07383102 -24.402771 0.94192505 C-16.25877472 0.2574392 -8.17059298 0.02880676 0 0 Z M1055.70703125 223.203125 C1054.69157227 223.40180176 1053.67611328 223.60047852 1052.62988281 223.80517578 C1030.3128762 228.26924588 1009.24095427 235.44021462 988.70703125 245.203125 C987.55485107 245.73945557 987.55485107 245.73945557 986.37939453 246.28662109 C966.43548015 255.60792286 947.7570862 267.25618384 930.44482422 280.84619141 C928.75548733 282.16528869 927.05003375 283.45939288 925.3359375 284.74609375 C913.03342376 294.00823637 901.57857656 304.18426349 890.33349609 314.68994141 C888.66983485 316.23773072 886.99669399 317.77459645 885.3203125 319.30859375 C876.97859551 326.9456314 868.82412424 334.64161932 861.453125 343.23828125 C859.6108745 345.31132824 857.68301463 347.25748302 855.70703125 349.203125 C851.82705855 353.03867053 848.24846111 357.05556579 844.70703125 361.203125 C843.80108173 362.25676885 842.89480542 363.31013177 841.98828125 364.36328125 C839.40102004 367.37164562 836.8213047 370.38637512 834.24462891 373.40380859 C833.25323739 374.5639476 832.26080221 375.72319595 831.26708984 376.88134766 C824.65564303 384.5873588 818.2902807 392.45086233 812.06005859 400.46777344 C810.75795712 402.13780903 809.44742731 403.800741 808.1328125 405.4609375 C796.05695641 420.7177619 784.25139461 436.15772045 773.14697266 452.13818359 C771.66985411 454.2564387 770.18077908 456.36576651 768.6875 458.47265625 C768.17799805 459.19163086 767.66849609 459.91060547 767.14355469 460.65136719 C766.20583985 461.97394219 765.26775006 463.29625152 764.32910156 464.61816406 C755.1217946 477.63677456 746.22025379 490.86162618 737.39453125 504.140625 C735.96430476 506.28972403 734.5337551 508.43860615 733.10256958 510.58706665 C732.1926064 511.95541288 731.2847273 513.32514775 730.37911987 514.69638062 C728.51826768 517.51069962 726.64225268 520.29309437 724.67041016 523.03173828 C723.83195557 524.2013208 723.83195557 524.2013208 722.9765625 525.39453125 C722.50452393 526.02689697 722.03248535 526.6592627 721.54614258 527.31079102 C720.3756662 529.95040766 720.97132381 531.4423619 721.70703125 534.203125 C722.738464 536.26322833 722.738464 536.26322833 724.09277344 538.21704102 C724.59129822 538.97296036 725.089823 539.7288797 725.60345459 540.50770569 C726.14810364 541.31598312 726.69275269 542.12426056 727.25390625 542.95703125 C727.82095276 543.81256088 728.38799927 544.66809052 728.972229 545.54954529 C730.79302387 548.29329426 732.62464845 551.02960468 734.45703125 553.765625 C735.64398556 555.54832474 736.83019064 557.33152356 738.015625 559.11523438 C739.79524879 561.7929138 741.57525984 564.4703202 743.3578949 567.14599609 C752.26704096 580.52719867 760.99322251 594.02901611 769.64453125 607.578125 C770.31218506 608.62282959 770.97983887 609.66753418 771.66772461 610.74389648 C773.68174372 613.89638823 775.69443582 617.04972423 777.70703125 620.203125 C778.31192383 621.14978027 778.91681641 622.09643555 779.54003906 623.07177734 C792.78924859 643.8088753 805.8091623 664.6845647 818.68359375 685.65625 C821.31542843 689.9429986 823.95601966 694.22411686 826.60546875 698.5 C834.32202765 710.96699306 841.89331071 723.50896351 849.35708618 736.12823486 C854.91413073 745.52364174 860.52360216 754.88364088 866.20703125 764.203125 C872.6905714 774.83624481 879.07180718 785.52679654 885.41503906 796.24414062 C891.63178427 806.74465116 897.93131833 817.19101612 904.28417969 827.60961914 C909.74644853 836.57809132 915.11084181 845.60257977 920.45703125 854.640625 C926.13997438 864.24638396 931.88322878 873.80358234 937.79492188 883.27099609 C942.43465552 890.71814699 946.95184938 898.23671692 951.45703125 905.765625 C963.47499265 925.843721 975.61360601 945.84500631 987.89672852 965.76220703 C992.2153976 972.76756144 996.50140282 979.79188787 1000.76953125 986.828125 C1006.09308592 995.59792926 1011.50357716 1004.31016019 1016.95458984 1013.0012207 C1021.64229793 1020.48107748 1026.27740371 1027.99202832 1030.89453125 1035.515625 C1036.94930513 1045.37625675 1043.0763023 1055.18678032 1049.28027344 1064.95410156 C1051.2246296 1068.01902439 1053.16023406 1071.08943572 1055.09619141 1074.15966797 C1061.08308767 1083.65252847 1067.10282514 1093.12431017 1073.1328125 1102.58984375 C1075.50866393 1106.31943079 1077.88090966 1110.05127098 1080.25 1113.78515625 C1087.4167459 1125.07613348 1094.64459098 1136.32431021 1101.95703125 1147.52148438 C1103.79330791 1150.33533243 1105.62527499 1153.15195747 1107.45703125 1155.96875 C1123.9096912 1181.23641308 1140.50700445 1206.43665925 1157.70703125 1231.203125 C1158.2597168 1231.99992676 1158.81240234 1232.79672852 1159.38183594 1233.61767578 C1175.28789254 1256.52080402 1191.56042312 1279.20892975 1208.70703125 1301.203125 C1209.58608344 1302.3410331 1210.46498529 1303.47905736 1211.34375 1304.6171875 C1219.94245595 1315.70836139 1229.02609127 1326.35179368 1238.4765625 1336.7265625 C1239.68635552 1338.06983531 1240.89013715 1339.41912912 1242.05908203 1340.7980957 C1247.45124683 1347.1200302 1253.29438054 1352.97658077 1259.16650391 1358.84790039 C1260.94464897 1360.62822752 1262.71462686 1362.41640877 1264.484375 1364.20507812 C1271.2470326 1371.00146881 1278.1348587 1377.30495323 1285.70703125 1383.203125 C1286.38282227 1383.74348389 1287.05861328 1384.28384277 1287.75488281 1384.84057617 C1327.67681955 1416.62812985 1374.60184837 1428.4061817 1424.984375 1422.95703125 C1468.37447338 1417.62236759 1507.71740032 1397.99956402 1535.16308594 1363.36572266 C1582.29160972 1302.68591307 1592.25912923 1219.25486255 1594.2097168 1144.65893555 C1594.26923001 1142.40204877 1594.33451382 1140.14538087 1594.40039062 1137.88867188 C1597.17302784 1038.89433617 1587.80322256 938.98504318 1564.70703125 812.203125 C1564.54050049 811.36126648 1564.37396973 810.51940796 1564.20239258 809.65203857 C1555.3430519 765.04571136 1544.11244024 720.87085339 1530.42980957 677.50042725 C1529.70789536 675.20587151 1528.99311501 672.90920542 1528.28027344 670.61181641 C1517.04042483 634.44790299 1503.93119717 598.88258867 1488.70703125 564.203125 C1488.43175598 563.57327698 1488.15648071 562.94342896 1487.87286377 562.29449463 C1473.53948026 529.51250916 1457.98114295 496.98319341 1439.70703125 466.203125 C1438.74332362 464.55738884 1437.77978245 462.91155519 1436.81640625 461.265625 C1425.51535821 442.08831854 1413.61077138 423.26087433 1400.32666016 405.39208984 C1398.62857661 403.09709179 1396.95326609 400.78670389 1395.28125 398.47265625 C1387.47769912 387.70902517 1379.29162237 377.35289033 1370.70703125 367.203125 C1369.91401611 366.26146484 1369.91401611 366.26146484 1369.10498047 365.30078125 C1367.5809641 363.49354905 1366.05185619 361.69081592 1364.51953125 359.890625 C1364.09333496 359.38877686 1363.66713867 358.88692871 1363.22802734 358.36987305 C1354.28719467 347.95883656 1344.79141124 338.10094087 1335.09130859 328.40209961 C1333.20380312 326.51239311 1331.32448508 324.61478562 1329.4453125 322.71679688 C1323.27545793 316.51853542 1317.06984372 310.63727501 1310.20654297 305.20629883 C1307.76330484 303.24822412 1305.43978308 301.20481178 1303.12109375 299.1015625 C1298.63406923 295.07300783 1293.92056934 291.42268488 1289.08203125 287.828125 C1287.77552612 286.85431885 1287.77552612 286.85431885 1286.44262695 285.86083984 C1274.32305896 276.88873511 1261.7737806 268.72389657 1248.70703125 261.203125 C1247.52657227 260.51863281 1247.52657227 260.51863281 1246.32226562 259.8203125 C1190.22587359 227.51846397 1120.18489861 210.12185151 1055.70703125 223.203125 Z M-35.29296875 283.203125 C-36.27652344 283.42274902 -37.26007813 283.64237305 -38.2734375 283.86865234 C-90.50590625 295.80339981 -135.14270429 324.45195327 -174.29296875 360.203125 C-175.23785156 361.05519531 -176.18273437 361.90726562 -177.15625 362.78515625 C-186.37835995 371.12631677 -195.45842341 379.67722707 -203.52734375 389.15625 C-205.68730295 391.66027349 -207.92784868 394.08310198 -210.16796875 396.515625 C-214.20576197 400.94808974 -218.06604309 405.48054677 -221.828125 410.1484375 C-223.6338205 412.3862408 -225.45276187 414.60794399 -227.2890625 416.8203125 C-234.82778791 425.93744421 -241.88358272 435.32037624 -248.71533203 444.97705078 C-250.24149785 447.13049862 -251.77926923 449.27515134 -253.3203125 451.41796875 C-260.99100188 462.12450128 -268.22956246 473.08787482 -275.29296875 484.203125 C-275.83066895 485.04891113 -276.36836914 485.89469727 -276.92236328 486.76611328 C-285.50630584 500.32445959 -293.55342468 514.14717161 -301.29296875 528.203125 C-301.87272461 529.25290527 -302.45248047 530.30268555 -303.04980469 531.38427734 C-332.35922438 584.66182921 -355.77388884 640.65901326 -375.29296875 698.203125 C-375.5529364 698.96864685 -375.81290405 699.7341687 -376.08074951 700.52288818 C-393.68192498 752.46062921 -407.42021882 805.46950065 -418.29296875 859.203125 C-418.46634766 860.05974731 -418.63972656 860.91636963 -418.81835938 861.7989502 C-438.11027532 957.56238295 -448.0278438 1057.04390275 -442.29296875 1177.203125 C-442.22980469 1177.85104004 -442.16664063 1178.49895508 -442.1015625 1179.16650391 C-436.22689338 1238.87790795 -422.70542032 1301.62292295 -387.29296875 1351.203125 C-386.70394775 1352.02973633 -386.70394775 1352.02973633 -386.10302734 1352.87304688 C-359.24876723 1390.10916619 -319.93203858 1414.9515613 -274.54296875 1422.390625 C-272.461726 1422.67708107 -270.37838249 1422.94880625 -268.29296875 1423.203125 C-267.40222656 1423.31527344 -266.51148438 1423.42742187 -265.59375 1423.54296875 C-210.91024174 1429.23754236 -159.28068565 1412.86745061 -116.29296875 1379.203125 C-115.47957031 1378.57148437 -114.66617187 1377.93984375 -113.828125 1377.2890625 C-102.10685061 1368.05642173 -91.08013615 1358.29143632 -80.66601562 1347.60864258 C-77.94772004 1344.82606298 -75.18541026 1342.08764509 -72.42260742 1339.34936523 C-70.2524168 1337.19843591 -68.08517027 1335.04456567 -65.91796875 1332.890625 C-65.18835938 1332.16939453 -64.45875 1331.44816406 -63.70703125 1330.70507812 C-59.02030224 1326.03927202 -54.58331413 1321.23450642 -50.29296875 1316.203125 C-49.31908567 1315.07415383 -48.34513058 1313.94524477 -47.37109375 1312.81640625 C-44.85371375 1309.88173003 -42.34137517 1306.94274085 -39.83056641 1304.00244141 C-38.83917489 1302.8423024 -37.84673971 1301.68305405 -36.85302734 1300.52490234 C-30.29591632 1292.88222261 -23.96983667 1285.09260667 -17.796875 1277.13671875 C-16.19784672 1275.08082525 -14.58976836 1273.03223662 -12.98046875 1270.984375 C-4.53340012 1260.21376764 3.65494922 1249.27157899 11.70703125 1238.203125 C12.26277832 1237.43967773 12.81852539 1236.67623047 13.39111328 1235.88964844 C21.26218975 1225.06374168 29.01757024 1214.15859088 36.70703125 1203.203125 C37.27067383 1202.40084473 37.83431641 1201.59856445 38.41503906 1200.77197266 C45.755501 1190.32063025 53.06043274 1179.84630646 60.27001953 1169.30419922 C61.23639287 1167.89125172 62.20352839 1166.47882524 63.17138672 1165.06689453 C67.70116122 1158.45778459 72.20822449 1151.83334445 76.70703125 1145.203125 C77.23218323 1144.42924438 77.75733521 1143.65536377 78.29840088 1142.85803223 C82.02578233 1137.36364573 85.74825825 1131.86596485 89.46685791 1126.3656311 C90.73145416 1124.49596421 91.99700624 1122.6269434 93.26361084 1120.75863647 C100.7337658 1109.73702518 108.02711028 1098.63231259 115.09643555 1087.34936523 C118.22554254 1082.36093074 121.47352975 1077.45756431 124.76953125 1072.578125 C130.40128768 1064.18301814 135.93381525 1055.73062132 141.40234375 1047.22851562 C142.68764797 1045.23321551 143.97762573 1043.24103123 145.26953125 1041.25 C151.4856997 1031.66873155 157.64768918 1022.05339696 163.79907227 1012.43041992 C167.62549359 1006.44706538 171.46518881 1000.47292699 175.33203125 994.515625 C181.25042751 985.39286692 187.07849913 976.2129755 192.90869141 967.03369141 C195.83876897 962.42178273 198.77310348 957.81258485 201.70703125 953.203125 C202.87110423 951.37370458 204.03516671 949.54427749 205.19921875 947.71484375 C207.55770911 944.00855055 209.91718461 940.30288697 212.27734375 936.59765625 C218.25918179 927.20512108 224.22801147 917.80475827 230.16845703 908.38598633 C234.59171138 901.37652554 239.04311102 894.38513078 243.49609375 887.39453125 C247.24593837 881.5054581 250.98261543 875.60830885 254.70703125 869.703125 C260.75558994 860.11431528 266.84267661 850.55022323 272.93359375 840.98828125 C274.67173843 838.25855184 276.40841231 835.52789315 278.14453125 832.796875 C290.75082768 812.96801567 303.39707053 793.16676126 316.22509766 773.48046875 C318.55972913 769.89275172 320.88350787 766.29804198 323.20703125 762.703125 C332.4755628 748.36909634 341.7927415 734.06678246 351.12011719 719.77099609 C355.15516935 713.58564493 359.18396089 707.39627519 363.20703125 701.203125 C367.86583729 694.03131767 372.53382989 686.8655603 377.20703125 679.703125 C384.05244864 669.21096071 390.88264514 658.70897711 397.70703125 648.203125 C404.76120631 637.34352259 411.82143042 626.48791342 418.89453125 615.640625 C419.54276855 614.64635498 420.19100586 613.65208496 420.85888672 612.62768555 C421.4623291 611.7025415 422.06577148 610.77739746 422.6875 609.82421875 C423.22270264 609.0036499 423.75790527 608.18308105 424.30932617 607.33764648 C425.43360888 605.62068514 426.56861564 603.91074842 427.70703125 602.203125 C427.34919704 599.18249524 426.19676357 597.1672866 424.44140625 594.7265625 C423.97041504 594.06543457 423.49942383 593.40430664 423.01416016 592.72314453 C422.50030762 592.01528809 421.98645508 591.30743164 421.45703125 590.578125 C420.65338135 589.45639893 420.65338135 589.45639893 419.83349609 588.31201172 C418.13041992 585.93819163 416.4188538 583.57064281 414.70703125 581.203125 C413.64141051 579.7191208 412.57629588 578.23475303 411.51171875 576.75 C400.40328068 561.28309632 389.10641348 545.96342243 377.53466797 530.83984375 C373.98593387 526.20124594 370.46237286 521.5467989 366.98071289 516.85766602 C361.97811509 510.12317471 356.81442113 503.55178698 351.49365234 497.06567383 C347.98078639 492.78321774 344.5411687 488.4531317 341.14453125 484.078125 C336.928231 478.66309532 332.53745054 473.42464281 328.04223633 468.23950195 C325.06475072 464.80282854 322.17061371 461.3191097 319.33203125 457.765625 C314.52405274 451.83869876 309.30126311 446.32812759 304.06640625 440.78125 C301.31250519 437.86119178 298.62031345 434.89390067 295.95703125 431.890625 C292.21678164 427.69848649 288.28765601 423.737807 284.26171875 419.8203125 C282.25895588 417.76855238 280.38909604 415.69890159 278.5234375 413.52734375 C274.16610946 408.5041821 269.48028882 403.83017886 264.76953125 399.140625 C263.91423828 398.28146484 263.05894531 397.42230469 262.17773438 396.53710938 C257.73222862 392.09838547 253.23253124 387.7959923 248.44506836 383.72680664 C246.61663858 382.12388063 244.90919918 380.43885323 243.20703125 378.703125 C239.54417284 374.99099047 235.67078758 371.5892485 231.70703125 368.203125 C230.78277344 367.40132813 229.85851562 366.59953125 228.90625 365.7734375 C173.00390443 317.56056025 101.99123169 279.62013673 26.58203125 278.96484375 C25.64521011 278.9550499 24.70838898 278.94525604 23.74317932 278.93516541 C3.74423313 278.76903905 -15.6985695 278.70877857 -35.29296875 283.203125 Z " fill="#0075F0" transform="translate(721.29296875,-0.203125)"/>
</svg>
